<svg xmlns="http://www.w3.org/2000/svg" x="0px" y="0px" width="100" height="100" viewBox="0,0,256,256">
<g fill="#ffffff" fill-rule="nonzero" stroke="none" stroke-width="1" stroke-linecap="butt" stroke-linejoin="miter" stroke-miterlimit="10" stroke-dasharray="" stroke-dashoffset="0" font-family="none" font-weight="none" font-size="none" text-anchor="none" style="mix-blend-mode: normal"><g transform="scale(5.12,5.12)"><path d="M5,7c-2.75781,0 -5,2.24219 -5,5v26c0,2.75781 2.24219,5 5,5h40c2.75781,0 5,-2.24219 5,-5v-26c0,-2.75781 -2.24219,-5 -5,-5zM25.90625,18c0.08984,-0.01953 0.1875,0 0.28125,0c0.74609,0 1.34375,0.58594 1.34375,1.34375c0,0.74609 -0.59766,1.34375 -1.34375,1.34375c-0.75781,0 -1.375,-0.59766 -1.375,-1.34375c0,-0.66016 0.47266,-1.21875 1.09375,-1.34375zM16.8125,19.1875v2.3125h1.65625l-0.3125,1.90625h-1.34375v3.375c0,0.58984 0.24219,0.84375 0.75,0.84375c0.23828,0 0.59375,-0.08594 0.75,-0.125v2.03125c-0.28125,0.07031 -0.71094,0.1875 -1.375,0.1875c-0.85937,0 -1.44922,-0.1875 -1.875,-0.53125c-0.50781,-0.41406 -0.75,-1.05859 -0.75,-2.03125v-3.75h-1.0625l0.28125,-1.78125l0.78125,-0.125l0.3125,-1.9375zM10.15625,21.34375c1.23047,0 2.12891,0.32422 2.5625,0.53125l-0.3125,1.9375c-0.54687,-0.26953 -1.34766,-0.5625 -2.125,-0.5625c-0.42578,0 -0.65625,0.14844 -0.65625,0.4375c0,0.34375 0.42969,0.5625 1.1875,0.84375c1.41797,0.50781 2.28125,1.09375 2.28125,2.53125c0,0.86719 -0.29687,1.54297 -0.875,2c-0.51562,0.41406 -1.29687,0.65625 -2.21875,0.65625c-1.16016,0 -2.27344,-0.375 -2.875,-0.71875l0.3125,-1.9375c0.70313,0.41406 1.78516,0.75 2.4375,0.75c0.52734,0 0.8125,-0.1875 0.8125,-0.53125c0,-0.35156 -0.28516,-0.58594 -1.1875,-0.90625c-1.39844,-0.50781 -2.25,-1.125 -2.25,-2.53125c0,-0.77734 0.27344,-1.39844 0.8125,-1.84375c0.51953,-0.42578 1.22266,-0.65625 2.09375,-0.65625zM33.0625,21.34375c0.80859,0 1.44922,0.28516 1.90625,0.875c0.51953,0.66406 0.78125,1.69531 0.78125,3.0625c0,1.54297 -0.36719,2.71094 -1.0625,3.46875c-0.72656,0.78516 -1.64062,0.96875 -2.28125,0.96875c-0.36328,0 -0.76172,-0.0625 -1.15625,-0.1875v2.5625l-2.59375,0.4375v-11.03125h2.28125l0.125,0.8125c0.60938,-0.65234 1.25391,-0.96875 2,-0.96875zM40.28125,21.34375c1.06641,0 1.87891,0.36719 2.4375,1.09375c0.54688,0.71484 0.84375,1.71484 0.84375,3c0,0.1875 -0.01953,0.78125 -0.03125,0.90625h-4.25c0.05078,0.52734 0.19922,0.89844 0.46875,1.125c0.24609,0.21875 0.59766,0.3125 1.09375,0.3125c0.82813,0 1.55469,-0.15625 2.1875,-0.5l0.28125,1.75c-0.64062,0.42578 -1.65234,0.6875 -2.75,0.6875c-1.19141,0 -2.10937,-0.31641 -2.75,-0.9375c-0.71484,-0.69141 -1.09375,-1.76953 -1.09375,-3.21875c0,-2.58984 1.37891,-4.21875 3.5625,-4.21875zM23.40625,21.375c0.15625,0 0.29297,0.02344 0.46875,0.0625v2.375c-0.17578,-0.03125 -0.30078,-0.03125 -0.4375,-0.03125c-0.62109,0 -1.08594,0.13672 -1.40625,0.53125v5.25h-2.5625v-8.0625h2.25l0.15625,0.9375c0.22656,-0.68359 0.80469,-1.0625 1.53125,-1.0625zM24.875,21.5h2.59375v8.0625h-2.59375zM40.03125,23.09375c-0.45703,0.11719 -0.71875,0.68359 -0.78125,1.6875h1.90625c-0.03906,-1.14062 -0.35937,-1.6875 -0.9375,-1.6875c-0.07422,0 -0.12109,-0.01562 -0.1875,0zM32.21875,23.3125c-0.14453,0 -0.53516,0.04297 -0.96875,0.5v3.8125c0.20703,0.10156 0.42969,0.15625 0.6875,0.15625c0.37109,0 0.69922,-0.19922 0.90625,-0.59375c0.23828,-0.41406 0.34375,-1.02734 0.34375,-1.8125c0,-1.37891 -0.31641,-2.0625 -0.96875,-2.0625z"></path></g></g>
</svg>